<svg width="88" height="36" viewBox="0 0 88 36" fill="none" xmlns="http://www.w3.org/2000/svg">
<mask id="mask0_2035_4003" style="mask-type:luminance" maskUnits="userSpaceOnUse" x="1" y="1" width="87" height="35">
<path d="M87.0228 1.0188H1.12891V35.6603H87.0228V1.0188Z" fill="white"/>
</mask>
<g mask="url(#mask0_2035_4003)">
<path d="M15.8858 33.2844C15.0214 33.2888 14.1697 33.0748 13.409 32.662L3.60494 27.0596C2.84838 26.6416 2.21858 26.0254 1.78247 25.2765C1.34636 24.5275 1.12024 23.6737 1.12813 22.8059V11.6011C1.12024 10.7333 1.34636 9.87955 1.78247 9.13055C2.21858 8.38161 2.84838 7.7654 3.60494 7.34746L13.409 1.64126C14.1712 1.23256 15.0219 1.0188 15.8858 1.0188C16.7497 1.0188 17.6004 1.23256 18.3626 1.64126L28.1667 7.24367C28.9232 7.66161 29.553 8.27783 29.9891 9.02683C30.4252 9.77577 30.6514 10.6296 30.6435 11.4974V22.7021C30.6514 23.5699 30.4252 24.4238 29.9891 25.1727C29.553 25.9217 28.9232 26.5379 28.1667 26.9558L18.3626 32.5583C17.6238 33.0349 16.7638 33.287 15.8858 33.2844ZM15.8858 1.53754C15.2804 1.56471 14.6853 1.70545 14.1314 1.95256L3.60494 7.96992C3.08158 8.27939 2.64565 8.71832 2.33858 9.24493C2.0315 9.77155 1.8635 10.3683 1.85053 10.9786V23.0134C1.84124 23.6282 1.9999 24.2339 2.30924 24.7644C2.61858 25.2949 3.06674 25.7299 3.60494 26.0221L14.1314 32.0395C14.6661 32.3451 15.2707 32.5058 15.8858 32.5058C16.5009 32.5058 17.1055 32.3451 17.6402 32.0395L28.1667 26.2296C28.6901 25.9201 29.126 25.4812 29.433 24.9546C29.7401 24.428 29.9081 23.8312 29.9211 23.2209V11.0824C29.9303 10.4675 29.7717 9.86189 29.4624 9.3314C29.153 8.80091 28.7049 8.36585 28.1667 8.07364L17.6402 2.05628C17.1119 1.72915 16.5061 1.55004 15.8858 1.53754Z" fill="#A98AC8"/>
<path d="M41.1706 15.5436H39.313L36.217 10.875V15.5436H34.3594V7.96997H36.217L39.313 12.6387V7.96997H41.1706V15.5436Z" fill="#A98AC8"/>
<path d="M44.6795 9.52612C45.0799 9.51695 45.4743 9.62509 45.8147 9.83735C46.134 10.0336 46.386 10.3231 46.537 10.6673V9.62984H48.3947V15.6473H46.537V14.6098C46.3533 14.9318 46.1078 15.214 45.8147 15.4398C45.4346 15.6607 44.9999 15.7683 44.5612 15.7498C44.1226 15.7315 43.6983 15.5879 43.3378 15.336C42.9276 15.0967 42.6027 14.7338 42.409 14.2985C42.1881 13.7741 42.0824 13.2078 42.0994 12.6386C42.0926 12.0701 42.1979 11.5059 42.409 10.9786C42.6027 10.5434 42.9276 10.1804 43.3378 9.94107C43.7231 9.64947 44.1978 9.50262 44.6795 9.52612ZM45.2986 11.0823C45.1213 11.065 44.9426 11.0942 44.7799 11.1669C44.6171 11.2397 44.4759 11.3534 44.3698 11.4973C44.1683 11.8054 44.061 12.1661 44.061 12.5348C44.061 12.9035 44.1683 13.2642 44.3698 13.5723C44.4893 13.7002 44.6331 13.8027 44.7926 13.874C44.9521 13.9452 45.1242 13.9837 45.2986 13.9873C45.4759 14.0046 45.6546 13.9754 45.8174 13.9027C45.9801 13.83 46.1214 13.7162 46.2274 13.5723C46.4683 13.2776 46.6125 12.9152 46.6403 12.5348C46.66 12.3412 46.6328 12.1457 46.5609 11.965C46.489 11.7843 46.3746 11.6238 46.2274 11.4973C46.1079 11.3695 45.9642 11.2669 45.8047 11.1956C45.6452 11.1244 45.4732 11.0859 45.2986 11.0823Z" fill="#A98AC8"/>
<path d="M53.1413 13.9871V15.5434H52.3157C51.7228 15.5633 51.1407 15.3804 50.6646 15.0246C50.4351 14.7971 50.2601 14.5201 50.1528 14.2145C50.0455 13.909 50.0088 13.5828 50.0453 13.2609V11.0822H49.2197V9.52599H50.0453V8.07349H51.9029V9.52599H53.1413V11.0822H51.9029V13.3647C51.876 13.5444 51.9125 13.7279 52.0061 13.8834C52.1608 13.9775 52.3434 14.0142 52.5221 13.9871H53.1413Z" fill="#A98AC8"/>
<path d="M53.9671 7.86616C53.9635 7.72983 53.9893 7.59433 54.0428 7.46894C54.0962 7.34355 54.176 7.23134 54.2767 7.13991C54.5058 6.93994 54.799 6.82983 55.1023 6.82983C55.4057 6.82983 55.6989 6.93994 55.928 7.13991C56.1171 7.3339 56.223 7.5946 56.223 7.86616C56.223 8.13772 56.1171 8.39848 55.928 8.59241C55.6989 8.79238 55.4057 8.90255 55.1023 8.90255C54.799 8.90255 54.5058 8.79238 54.2767 8.59241C54.176 8.50105 54.0962 8.38877 54.0428 8.26345C53.9893 8.13806 53.9635 8.00255 53.9671 7.86616ZM56.0312 9.62989V15.6473H54.1735V9.62989H56.0312Z" fill="#A98AC8"/>
<path d="M60.0562 9.52617C60.6036 9.48908 61.1478 9.63498 61.6042 9.94119C62.073 10.1715 62.4668 10.5314 62.7394 10.9787C63.0439 11.4759 63.1881 12.0557 63.1522 12.6386C63.1755 13.2202 63.0322 13.7964 62.7394 14.2986C62.4668 14.7458 62.073 15.1058 61.6042 15.3361C61.1184 15.5701 60.5934 15.7109 60.0562 15.751C59.4776 15.7745 58.9045 15.6305 58.405 15.3361C57.9362 15.1058 57.5424 14.7458 57.2697 14.2986C56.9652 13.8013 56.8211 13.2215 56.857 12.6386C56.8336 12.057 56.9769 11.4808 57.2697 10.9787C57.5424 10.5314 57.9362 10.1715 58.405 9.94119C58.9093 9.65883 59.479 9.51564 60.0562 9.52617ZM60.0562 11.0824C59.8812 11.0829 59.7082 11.12 59.5482 11.1915C59.3883 11.2629 59.245 11.3671 59.1274 11.4974C58.8891 11.8271 58.779 12.233 58.8177 12.6386C58.7952 13.0427 58.9038 13.4432 59.1274 13.7799C59.2469 13.9077 59.3906 14.0103 59.5501 14.0815C59.7096 14.1528 59.8817 14.1913 60.0562 14.1948C60.2312 14.1943 60.4042 14.1572 60.5641 14.0857C60.724 14.0143 60.8673 13.9101 60.985 13.7799C61.2232 13.4502 61.3333 13.0443 61.2946 12.6386C61.3171 12.2345 61.2085 11.834 60.985 11.4974C60.8654 11.3695 60.7217 11.2669 60.5622 11.1957C60.4027 11.1244 60.2307 11.0859 60.0562 11.0824Z" fill="#A98AC8"/>
<path d="M68.0021 9.52611C68.3155 9.50206 68.6295 9.55566 68.9174 9.68234C69.2053 9.80895 69.4583 10.0047 69.6536 10.2524C69.875 10.5063 70.0448 10.8023 70.1508 11.1231C70.2575 11.4438 70.2984 11.7828 70.2723 12.1198V15.6473H68.4148V12.4311C68.4276 12.2625 68.4074 12.0931 68.3537 11.9327C68.3007 11.7724 68.2162 11.6243 68.1055 11.4973C67.8807 11.2899 67.5847 11.1783 67.2794 11.1861C67.1123 11.173 66.9434 11.1938 66.7839 11.2472C66.6244 11.3007 66.4772 11.3857 66.3508 11.4973C66.1265 11.7943 66.0166 12.1628 66.0413 12.5348V15.751H64.1836V9.73362H66.0413V10.8748C66.2249 10.5528 66.4705 10.2707 66.7636 10.0448C66.9162 9.86811 67.1076 9.72927 67.3223 9.63927C67.5371 9.54927 67.7699 9.51056 68.0021 9.52611Z" fill="#A98AC8"/>
<path d="M73.7811 9.52612C74.1817 9.51695 74.5763 9.62509 74.9165 9.83735C75.2359 10.0336 75.4876 10.3231 75.6386 10.6673V9.62984H77.4967V15.6473H75.6386V14.6098C75.4554 14.9318 75.2098 15.214 74.9165 15.4398C74.5367 15.6607 74.1019 15.7683 73.663 15.7498C73.2241 15.7315 72.8 15.5879 72.4397 15.336C72.0297 15.0967 71.7042 14.7338 71.511 14.2985C71.2902 13.7741 71.1842 13.2078 71.2009 12.6386C71.1942 12.0701 71.2996 11.5059 71.511 10.9786C71.7042 10.5434 72.0297 10.1804 72.4397 9.94107C72.8249 9.64947 73.2993 9.50262 73.7811 9.52612ZM74.2971 11.0823C74.12 11.065 73.9415 11.0942 73.7784 11.1669C73.616 11.2397 73.4744 11.3534 73.3684 11.4973C73.1671 11.8054 73.0597 12.1661 73.0597 12.5348C73.0597 12.9035 73.1671 13.2642 73.3684 13.5723C73.4879 13.7002 73.6315 13.8027 73.7912 13.874C73.9509 13.9452 74.1227 13.9837 74.2971 13.9873C74.4743 14.0046 74.6535 13.9754 74.8159 13.9027C74.9789 13.83 75.1198 13.7162 75.2259 13.5723C75.4668 13.2776 75.6111 12.9152 75.6386 12.5348C75.6587 12.3412 75.6312 12.1457 75.5594 11.965C75.4876 11.7843 75.3728 11.6238 75.2259 11.4973C75.1064 11.3695 74.9628 11.2669 74.8031 11.1956C74.6441 11.1244 74.4716 11.0859 74.2971 11.0823Z" fill="#A98AC8"/>
<path d="M80.5928 7.65869V15.6473H78.7354V7.65869H80.5928Z" fill="#A98AC8"/>
<path d="M37.1457 20.3159C37.8206 20.2818 38.4837 20.504 39.0033 20.9384C39.2606 21.1387 39.4753 21.3888 39.6348 21.6739C39.7943 21.959 39.8954 22.2734 39.9321 22.5984H38.5905C38.5691 22.4308 38.5118 22.2699 38.4228 22.1266C38.3337 21.9834 38.2149 21.8612 38.0745 21.7684C37.7718 21.5578 37.4106 21.4488 37.0425 21.4572C36.8271 21.4551 36.6138 21.5005 36.4177 21.59C36.2216 21.6797 36.0473 21.8114 35.9073 21.9759C35.5736 22.3856 35.3913 22.8988 35.3913 23.4284C35.3913 23.9579 35.5736 24.4711 35.9073 24.8809C36.2044 25.1953 36.6114 25.3814 37.0425 25.3996C37.4106 25.4079 37.7718 25.299 38.0745 25.0884C38.3388 24.8818 38.5217 24.5877 38.5905 24.2584H39.9321C39.8954 24.5834 39.7943 24.8978 39.6348 25.1828C39.4753 25.468 39.2606 25.718 39.0033 25.9183C38.4754 26.3376 37.8182 26.5578 37.1457 26.5408C36.6266 26.5482 36.1146 26.4179 35.6617 26.1628C35.2087 25.9078 34.8307 25.5372 34.5657 25.0884C34.3078 24.5724 34.1669 24.0056 34.1528 23.4284C34.1296 22.8467 34.2728 22.2706 34.5657 21.7684C34.8307 21.3196 35.2087 20.949 35.6617 20.6939C36.1146 20.4389 36.6266 20.3085 37.1457 20.3159Z" fill="#A98AC8"/>
<path d="M43.5437 20.3159C44.0272 20.2769 44.5073 20.4254 44.8853 20.7309C45.2441 21.0002 45.5284 21.3574 45.7109 21.7684V20.4197H46.9493V26.3334H45.7109V24.9847C45.5367 25.4177 45.2368 25.7879 44.8502 26.0469C44.4636 26.306 44.0083 26.442 43.5437 26.4371C43.0602 26.4761 42.5802 26.3277 42.2021 26.0221C41.7919 25.7828 41.467 25.4198 41.2733 24.9847C41.0523 24.4602 40.9468 23.8939 40.9637 23.3247C40.9569 22.7562 41.0621 22.1921 41.2733 21.6647C41.467 21.2294 41.7919 20.8665 42.2021 20.6272C42.613 20.4032 43.0767 20.2956 43.5437 20.3159ZM43.9565 21.4572C43.4601 21.4531 42.9807 21.6386 42.6149 21.9759C42.2637 22.3755 42.0789 22.8956 42.0989 23.4284C42.0955 23.9585 42.2782 24.4729 42.6149 24.8809C42.7906 25.0561 43.0006 25.1927 43.2315 25.282C43.4624 25.3713 43.7093 25.4114 43.9565 25.3996C44.2751 25.3803 44.5886 25.3103 44.8853 25.1921C45.1707 25.0313 45.3901 24.774 45.5045 24.4659C45.6408 24.1372 45.7109 23.7846 45.7109 23.4284C45.7109 23.0723 45.6408 22.7196 45.5045 22.391C45.3243 22.1275 45.1167 21.884 44.8853 21.6647C44.6053 21.4986 44.2802 21.4259 43.9565 21.4572Z" fill="#A98AC8"/>
<path d="M50.3547 20.3159C50.9476 20.296 51.5297 20.4789 52.0059 20.8347C52.4548 21.1957 52.7501 21.7151 52.8315 22.2872H51.6963C51.6936 22.1411 51.6544 21.9979 51.5823 21.871C51.5101 21.7441 51.4074 21.6375 51.2835 21.5609C51.1572 21.4493 51.0099 21.3643 50.8504 21.3108C50.6909 21.2574 50.5223 21.2366 50.3547 21.2497C50.1003 21.2559 49.8516 21.3274 49.6323 21.4572C49.4258 21.5609 49.4259 21.7684 49.4259 22.0797C49.4274 22.1599 49.4467 22.2388 49.4824 22.3106C49.5181 22.3824 49.5693 22.4453 49.6323 22.4947C49.7355 22.5984 49.9419 22.7022 50.0451 22.8059C50.3134 22.9001 50.5898 22.9695 50.8707 23.0134C51.2228 23.0879 51.568 23.192 51.9027 23.3246C52.1818 23.436 52.4299 23.614 52.6251 23.8434C52.7361 23.9703 52.8207 24.1184 52.8739 24.2788C52.927 24.4391 52.9477 24.6085 52.9347 24.7771C52.9407 25.0197 52.8873 25.2601 52.7793 25.4772C52.6714 25.6942 52.5121 25.8813 52.3155 26.0221C51.8591 26.3283 51.3149 26.4742 50.7675 26.4371C50.1428 26.4553 49.5285 26.2737 49.0131 25.9183C48.5642 25.5574 48.2689 25.038 48.1875 24.4658H49.4259C49.455 24.7848 49.6023 25.0811 49.8387 25.2959C50.1341 25.5213 50.5006 25.6319 50.8707 25.6071C51.1251 25.6009 51.3738 25.5294 51.5931 25.3996C51.6917 25.3296 51.7716 25.236 51.8256 25.1274C51.8797 25.0188 51.9061 24.8985 51.9027 24.7771C51.8992 24.5846 51.8258 24.4002 51.6963 24.2584C51.5388 24.132 51.3653 24.0273 51.1803 23.9471C50.9119 23.853 50.6356 23.7835 50.3547 23.7397C50.0026 23.6652 49.6574 23.5611 49.3227 23.4284C49.0435 23.3171 48.7955 23.139 48.6003 22.9096C48.4893 22.7827 48.4047 22.6347 48.3515 22.4743C48.2983 22.3139 48.2776 22.1445 48.2906 21.9759C48.289 21.7442 48.3337 21.5144 48.4224 21.3006C48.5111 21.0866 48.6418 20.8929 48.8067 20.7309C49.2827 20.4712 49.8132 20.329 50.3547 20.3159Z" fill="#A98AC8"/>
<path d="M53.9668 18.656C53.9703 18.4635 54.0437 18.2791 54.1731 18.1373C54.3453 17.9906 54.5671 17.9163 54.7924 17.9298C55.0117 17.9513 55.2233 18.0222 55.4116 18.1373C55.5452 18.2765 55.62 18.4625 55.62 18.656C55.62 18.8496 55.5452 19.0355 55.4116 19.1748C55.2394 19.3214 55.0177 19.3957 54.7924 19.3822C54.5731 19.3608 54.3614 19.2898 54.1731 19.1748C54.0437 19.033 53.9703 18.8485 53.9668 18.656ZM55.4116 20.4198V26.3333H54.1731V20.4198H55.4116Z" fill="#A98AC8"/>
<path d="M60.1592 20.3159C60.4624 20.2982 60.7659 20.3445 61.0503 20.4517C61.3346 20.5588 61.5935 20.7247 61.8104 20.9385C62.0324 21.1924 62.2016 21.4885 62.3079 21.8092C62.4143 22.1299 62.4556 22.4689 62.4296 22.8059V26.2296H61.1912V22.9096C61.2108 22.6848 61.1843 22.4583 61.1132 22.2441C61.0422 22.03 60.9283 21.8328 60.7783 21.6647C60.483 21.4392 60.1164 21.3287 59.7463 21.3534C59.5294 21.3402 59.3125 21.3805 59.1146 21.4709C58.9167 21.5613 58.7439 21.6992 58.6111 21.8722C58.4537 22.0563 58.3358 22.2712 58.2647 22.5033C58.1937 22.7354 58.1711 22.9797 58.1984 23.2209V26.3334H56.96V20.4197H58.0952V21.7684C58.2498 21.341 58.5399 20.9765 58.9208 20.731C59.2903 20.486 59.7174 20.3429 60.1592 20.3159Z" fill="#A98AC8"/>
<path d="M66.6613 20.316C67.1803 20.3086 67.6923 20.439 68.1452 20.694C68.5982 20.949 68.976 21.3196 69.2411 21.7685C69.5457 22.2657 69.69 22.8455 69.6544 23.4284C69.6772 24.01 69.5343 24.5862 69.2411 25.0884C68.9793 25.5077 68.6264 25.8623 68.209 26.1259C67.7332 26.3856 67.2024 26.5279 66.6613 26.5408C66.1422 26.5482 65.6303 26.4179 65.1773 26.1628C64.7243 25.9079 64.3462 25.5372 64.0812 25.0884C63.7767 24.5911 63.6325 24.0113 63.6685 23.4284C63.6451 22.8468 63.7884 22.2706 64.0812 21.7685C64.3434 21.3491 64.6962 20.9945 65.1133 20.731C65.5696 20.4248 66.1138 20.2789 66.6613 20.316ZM66.6613 21.4572C66.3742 21.4641 66.0922 21.5349 65.8357 21.6647C65.5591 21.787 65.3381 22.0091 65.2165 22.2872C65.0398 22.6022 64.9674 22.9656 65.01 23.3247C65.0192 23.7136 65.0888 24.0987 65.2165 24.4659C65.3672 24.7227 65.5802 24.9369 65.8357 25.0884C66.0965 25.2059 66.3761 25.2762 66.6613 25.2959C66.9484 25.289 67.2306 25.2181 67.4869 25.0884C67.6332 25.0438 67.7661 24.9637 67.8741 24.8551C67.9822 24.7465 68.062 24.6129 68.1063 24.4659C68.2922 24.1167 68.3647 23.7174 68.3123 23.3247C68.315 22.9683 68.2445 22.6151 68.1063 22.2872C67.9553 22.0304 67.7426 21.8162 67.4869 21.6647C67.2447 21.4997 66.9523 21.4261 66.6613 21.4572Z" fill="#A98AC8"/>
<path fill-rule="evenodd" clip-rule="evenodd" d="M18.0532 4.75381L25.9996 9.31868C26.593 9.67025 27.0855 10.1705 27.4292 10.7706C27.7729 11.3706 27.9559 12.05 27.9604 12.7424V21.7685C27.981 22.4657 27.8086 23.155 27.4625 23.7596C27.1162 24.3641 26.6098 24.86 25.9996 25.1922L18.0532 29.7571C17.4649 30.1208 16.7826 30.3013 16.0924 30.2758C15.405 30.2773 14.7292 30.0985 14.1316 29.7571L6.18513 25.1922C5.59176 24.8406 5.09921 24.3404 4.75554 23.7403C4.41188 23.1402 4.22885 22.4608 4.22431 21.7685V12.7424C4.20369 12.0452 4.3761 11.3559 4.72231 10.7513C5.06853 10.1468 5.57495 9.65083 6.18513 9.31868L14.1316 4.75381C14.7241 4.39727 15.4018 4.20898 16.0924 4.20898C16.783 4.20898 17.4606 4.39727 18.0532 4.75381ZM18.5692 23.4284H21.562V10.875H18.5692V18.6561L13.5124 10.875H10.5196V23.4284H13.5124V15.7511L18.5692 23.4284Z" fill="#A98AC8"/>
<path d="M21.4585 3.40499L18.3625 1.64126C17.6002 1.23256 16.7496 1.0188 15.8857 1.0188C15.0218 1.0188 14.1712 1.23256 13.4089 1.64126L10.1064 3.6125C10.2209 3.80174 10.2915 4.01454 10.3129 4.23503L14.1312 2.05628C14.6853 1.80924 15.2803 1.66843 15.8857 1.64126C16.5061 1.65376 17.1118 1.83287 17.6401 2.16L21.4585 4.33875C21.5617 4.23502 21.5617 4.23503 21.6649 4.23503C21.5595 3.96883 21.4901 3.68973 21.4585 3.40499Z" fill="#A98AC8"/>
<path d="M86.6822 31.002C86.5131 31.0622 86.3333 31.0841 86.1548 31.0662C85.9763 31.0482 85.8038 30.9909 85.6502 30.8983C84.8771 30.3289 84.2993 29.5309 83.9987 28.6158C83.5505 27.4208 83.3062 26.1579 83.2767 24.8809C82.7606 19.7973 79.3551 18.9672 79.0457 18.8635C79.0182 18.8635 78.992 18.8526 78.9726 18.8332C78.9531 18.8137 78.9424 18.7873 78.9424 18.7598V18.656H79.0457C80.3986 18.8657 81.6568 19.4803 82.6573 20.4197C83.4834 21.146 84.2054 22.0797 85.3408 24.7772C86.2695 26.8521 87.1983 29.5496 86.9916 30.5871C86.8889 30.7945 86.7856 31.002 86.6822 31.002ZM83.38 24.8809C83.896 29.2383 84.7214 30.2758 85.6502 30.8983C85.7857 30.9878 85.9407 31.0439 86.1024 31.0619C86.2635 31.0799 86.4272 31.0594 86.5789 31.002C86.6822 31.002 86.7856 30.7945 86.7856 30.6908C86.8889 29.8608 86.2695 27.5784 85.1341 24.9847C84.5725 23.3804 83.6551 21.9258 82.4513 20.731C81.5366 19.8435 80.3918 19.2323 79.1484 18.9672C80.1805 19.071 82.864 20.316 83.38 24.8809Z" fill="#A98AC8"/>
<path d="M79.2518 23.5322C79.5041 23.5118 79.7497 23.4412 79.9745 23.3247C80.2422 23.1853 80.4791 22.9932 80.6717 22.7598C80.8643 22.5264 81.0079 22.2565 81.0945 21.9662C81.181 21.6759 81.2085 21.371 81.1757 21.0697C81.1428 20.7684 81.0502 20.4768 80.9032 20.2122C80.7999 20.0047 80.5932 19.7972 80.4905 19.5897L80.3872 18.7597L79.3551 18.4485L79.1484 18.656L79.8712 18.8635L79.9745 19.6935C80.147 19.8754 80.2865 20.086 80.3872 20.3159C80.6596 20.8554 80.7153 21.4795 80.5422 22.059C80.3691 22.6385 79.9812 23.1288 79.4585 23.4284C79.4028 23.4847 79.3303 23.5212 79.2518 23.5322Z" fill="#A98AC8"/>
<path fill-rule="evenodd" clip-rule="evenodd" d="M72.9565 22.5984L72.4404 21.5609L76.0527 20.316L76.4654 20.1085L76.672 20.4197L77.1881 20.1085L76.9814 19.7972L78.2195 19.2785H78.3228C78.3638 19.2392 78.4127 19.2096 78.4664 19.1917C78.5194 19.1738 78.5765 19.1679 78.6328 19.1747C78.7536 19.0922 78.8999 19.0554 79.0455 19.071L79.2515 18.7598L79.9743 18.9672L80.0776 19.7972C80.1293 19.901 80.2064 20.0047 80.2836 20.1085C80.3615 20.2122 80.4386 20.316 80.4903 20.4197C80.6373 20.6843 80.7299 20.9759 80.7627 21.2772C80.7956 21.5785 80.7681 21.8833 80.6815 22.1737C80.595 22.464 80.4514 22.7339 80.2588 22.9673C80.0662 23.2007 79.8293 23.3928 79.5616 23.5321C79.5059 23.5885 79.4334 23.6249 79.3549 23.6359C78.9066 23.6905 78.453 23.6113 78.049 23.4085C77.6457 23.2055 77.3102 22.8877 77.0847 22.4947L72.9565 22.5984ZM78.3711 22.2594C78.1725 22.1452 78.0121 21.9744 77.9101 21.7684C77.8101 21.4884 77.8068 21.1828 77.9001 20.9007C77.994 20.6185 78.1792 20.376 78.4262 20.2122C78.6302 20.109 78.8603 20.0691 79.0878 20.0975C79.3146 20.1261 79.528 20.2216 79.7011 20.3722C79.8743 20.5227 79.9984 20.7214 80.0595 20.9432C80.1199 21.165 80.1132 21.3999 80.0414 21.6181C79.9689 21.8363 79.8333 22.028 79.6528 22.1689C79.4723 22.3098 79.2536 22.3937 79.0254 22.4098C78.7972 22.4259 78.5698 22.3735 78.3711 22.2594Z" fill="#A98AC8"/>
<path d="M75.2353 25.0935L74.8428 26.3832L75.6319 26.626L76.0245 25.3363L75.2353 25.0935Z" fill="#A98AC8"/>
<path d="M76.0524 25.7109L74.917 25.3996L75.0203 24.7771L76.3618 25.1921L76.0524 25.7109Z" fill="#A98AC8"/>
<path d="M73.5298 25.2551L72.9131 25.3125L73.0084 26.3456L73.6251 26.2882L73.5298 25.2551Z" fill="#A98AC8"/>
<path d="M73.5759 25.5034H72.7498L72.6465 25.1921L73.6785 25.0884L73.5759 25.5034Z" fill="#A98AC8"/>
<path d="M77.3548 26.3728L76.7012 27.1754L77.1803 27.5698L77.8339 26.7672L77.3548 26.3728Z" fill="#A98AC8"/>
<path d="M77.084 26.5408L77.7034 27.0595L78.0134 26.852L77.1873 26.1257L77.084 26.5408Z" fill="#A98AC8"/>
<path d="M78.5297 32.2471C78.2539 33.1601 77.715 33.9705 76.9816 34.5757C76.2475 35.181 75.3516 35.5539 74.4074 35.6473C73.4626 35.7409 72.5117 35.5507 71.6749 35.1008C70.8382 34.651 70.1523 33.9618 69.7048 33.1203C69.2578 32.2789 69.0686 31.3229 69.1619 30.3734C69.2545 29.4238 69.6256 28.5233 70.2275 27.7858C70.8301 27.0482 71.636 26.5067 72.544 26.2297C73.4525 25.9527 74.4222 25.9527 75.3301 26.2297C76.54 26.6128 77.5526 27.4573 78.1512 28.5822C78.7491 29.7071 78.8847 31.0227 78.5297 32.2471Z" fill="#A98AC8"/>
<path d="M77.8062 32.0393C77.5626 32.8242 77.0929 33.5187 76.4567 34.0348C75.8199 34.5509 75.0455 34.8653 74.2309 34.9381C73.4162 35.0109 72.5982 34.8389 71.8816 34.4438C71.1642 34.0488 70.5797 33.4484 70.2026 32.7191C69.8255 31.9897 69.6725 31.1641 69.7624 30.347C69.8523 29.5299 70.1818 28.7581 70.7092 28.1296C71.236 27.501 71.9372 27.044 72.723 26.8166C73.5088 26.5891 74.3443 26.6014 75.1227 26.8519C76.1608 27.1856 77.0251 27.9182 77.5277 28.8899C78.0303 29.8616 78.1303 30.9937 77.8062 32.0393Z" fill="#A98AC8"/>
<path d="M72.8525 34.3219C72.1472 34.1069 71.5211 33.6862 71.0534 33.1134C70.5857 32.5404 70.2978 31.8409 70.226 31.1034C70.1535 30.3658 70.3012 29.6234 70.6488 28.97C70.997 28.3167 71.5298 27.7818 72.1801 27.4331C72.831 27.0843 73.5698 26.9374 74.3033 27.0109C75.0367 27.0844 75.7319 27.375 76.301 27.846C76.87 28.317 77.2874 28.9471 77.5008 29.6566C77.7135 30.3662 77.7122 31.1232 77.4968 31.832C77.3639 32.308 77.1364 32.752 76.8284 33.1373C76.5197 33.5226 76.1372 33.8412 75.7037 34.0738C75.2696 34.3065 74.7931 34.4484 74.3033 34.4911C73.8134 34.5337 73.3195 34.4761 72.8525 34.3219ZM74.9166 27.6821C74.2952 27.4884 73.6302 27.4843 73.0061 27.6702C72.3827 27.8561 71.8271 28.2237 71.4111 28.7265C70.995 29.2295 70.7367 29.8451 70.6682 30.4956C70.5998 31.1461 70.7246 31.8024 71.0272 32.3817C71.3299 32.9609 71.7962 33.437 72.3673 33.7498C72.939 34.0627 73.5899 34.1983 74.2382 34.1394C74.8857 34.0806 75.5024 33.83 76.0091 33.4193C76.515 33.0086 76.8895 32.4563 77.0834 31.832C77.2143 31.4165 77.2619 30.9791 77.2237 30.5449C77.1854 30.1108 77.0619 29.6887 76.8606 29.3029C76.6593 28.917 76.3835 28.5751 76.05 28.2969C75.7165 28.0187 75.3313 27.8098 74.9166 27.6821Z" fill="#A98AC8"/>
<path d="M76.9083 29.3462L73.9248 30.7702L73.9691 30.864L76.9526 29.4399L76.9083 29.3462Z" fill="#A98AC8"/>
<path d="M75.02 27.7858C75.02 27.8896 74.9166 27.8896 74.8133 27.8896C74.71 27.8896 74.71 27.7858 74.71 27.6821C74.71 27.5784 74.8133 27.5784 74.9166 27.5784C75.02 27.5784 75.02 27.6821 75.02 27.7858Z" fill="#A98AC8"/>
<path d="M76.3617 28.7195C76.2583 28.8232 76.155 28.8232 76.155 28.7195C76.155 28.6157 76.0523 28.5119 76.155 28.5119C76.2583 28.5119 76.3617 28.4082 76.3617 28.5119C76.3617 28.6157 76.465 28.7195 76.3617 28.7195Z" fill="#A98AC8"/>
<path d="M77.0839 30.2758C76.9813 30.2758 76.8779 30.2758 76.8779 30.1721C76.8779 30.0683 76.8779 29.9646 76.9813 29.9646C77.0839 29.9646 77.1873 29.9646 77.1873 30.0683C77.1873 30.1721 77.1873 30.2758 77.0839 30.2758Z" fill="#A98AC8"/>
<path d="M76.9813 31.9357C76.8779 31.9357 76.8779 31.8319 76.8779 31.7282C76.8779 31.6244 76.9813 31.6244 77.0839 31.6244C77.1873 31.6244 77.1873 31.7282 77.1873 31.8319C77.1336 31.8911 77.0605 31.9281 76.9813 31.9357Z" fill="#A98AC8"/>
<path d="M75.9496 33.2845C75.8462 33.1807 75.8462 33.077 75.9496 33.077C76.0529 33.077 76.1563 32.9733 76.1563 33.077C76.1563 33.1807 76.2589 33.2845 76.1563 33.2845C76.0529 33.2845 76.0529 33.3882 75.9496 33.2845Z" fill="#A98AC8"/>
<path d="M74.5039 34.0107C74.5039 33.9069 74.5039 33.8032 74.6066 33.8032C74.7099 33.8032 74.8133 33.8032 74.8133 33.9069C74.8133 34.0107 74.8133 34.1145 74.7099 34.1145C74.6066 34.1145 74.5039 34.1145 74.5039 34.0107Z" fill="#A98AC8"/>
<path d="M72.8534 33.9069C72.8534 33.8032 72.956 33.8032 73.0594 33.8032C73.1627 33.8032 73.1627 33.9069 73.1627 34.0107C73.1627 34.1145 73.0594 34.1145 72.956 34.1145C72.8534 34.1145 72.75 34.0107 72.8534 33.9069Z" fill="#A98AC8"/>
<path d="M71.4082 32.8695C71.5115 32.7657 71.6149 32.7657 71.6149 32.8695C71.6149 32.9732 71.7176 33.0769 71.6149 33.0769C71.5115 33.0769 71.4082 33.1807 71.4082 33.0769V32.8695Z" fill="#A98AC8"/>
<path d="M70.6857 31.417C70.789 31.417 70.8924 31.417 70.8924 31.5208C70.8924 31.6245 70.8924 31.7282 70.789 31.7282C70.6857 31.7282 70.583 31.7283 70.583 31.6245C70.5937 31.5458 70.63 31.473 70.6857 31.417Z" fill="#A98AC8"/>
<path d="M70.8922 29.7569C70.9956 29.7569 70.9956 29.8606 70.9956 29.9643C70.9956 30.0681 70.8922 30.0681 70.7889 30.0681C70.6855 30.0681 70.6855 29.9644 70.6855 29.8606C70.6855 29.7569 70.7889 29.6531 70.8922 29.7569Z" fill="#A98AC8"/>
<path d="M71.821 28.3047C71.9236 28.4084 71.9236 28.5121 71.821 28.5121C71.7176 28.5121 71.6143 28.6159 71.6143 28.5121C71.6143 28.4084 71.5109 28.3047 71.6143 28.3047H71.821Z" fill="#A98AC8"/>
<path d="M73.3689 27.5784C73.3689 27.6821 73.3689 27.7859 73.2656 27.7859C73.1622 27.7859 73.0596 27.7859 73.0596 27.6821C73.0596 27.5784 73.0596 27.4746 73.1622 27.4746C73.2408 27.4856 73.3132 27.522 73.3689 27.5784Z" fill="#A98AC8"/>
<path d="M74.298 30.8983C74.2772 30.9796 74.2329 31.053 74.1711 31.1091C74.1087 31.1652 74.0316 31.2016 73.949 31.2137C73.8665 31.2258 73.7826 31.2131 73.7068 31.1772C73.6316 31.1412 73.5685 31.0836 73.5256 31.0117C73.4826 30.9397 73.4618 30.8566 73.4652 30.7727C73.4692 30.6889 73.4981 30.6081 73.5477 30.5405C73.5967 30.473 73.6652 30.4216 73.7437 30.393C73.8222 30.3643 73.9074 30.3597 73.9886 30.3796C74.298 30.4833 74.4013 30.6908 74.298 30.8983Z" fill="#A98AC8"/>
<path opacity="0.81" d="M71.305 32.3508L72.0277 31.8321C71.8653 31.5717 71.7627 31.2785 71.7271 30.9735C71.6915 30.6685 71.7237 30.3593 71.821 30.0684C71.9358 29.7143 72.1378 29.3954 72.4089 29.1413C72.6793 28.8872 73.0101 28.7065 73.3691 28.6159L73.1625 27.7859C72.6417 27.8863 72.1599 28.1353 71.7761 28.5032C71.3916 28.8711 71.1205 29.3424 70.9956 29.8608C70.84 30.2696 70.787 30.7104 70.8406 31.1448C70.895 31.579 71.054 31.9932 71.305 32.3508Z" fill="#A98AC8"/>
</g>
</svg>
